<svg id="mining" xmlns="http://www.w3.org/2000/svg" width="50.489" height="51.051" viewBox="0 0 50.489 51.051">
  <path id="Trazado_17" data-name="Trazado 17" d="M5.077,191.487a2.807,2.807,0,0,1,2.592-1.721h2.848a2.83,2.83,0,0,1,2,.832l.3.307a.818.818,0,0,0,1.332-.253l3.224-7.485a2.81,2.81,0,0,1,2.583-1.7h5.1l4.59-10.4a2.813,2.813,0,0,1,2.573-1.677h2.871a1,1,0,1,1,0,1.994H32.217a.818.818,0,0,0-.749.488l-4.25,9.63a4.155,4.155,0,0,1,3.3,2.53l1.729,4.15a1,1,0,0,1-1.841.767l-1.728-4.15a2.169,2.169,0,0,0-2.008-1.339H19.959a.817.817,0,0,0-.752.495l-3.224,7.485a2.812,2.812,0,0,1-4.58.869L11.1,192a.825.825,0,0,0-.581-.242H7.669a.816.816,0,0,0-.754.5l-4.5,10.681a1,1,0,0,1-1.838-.774Zm0,0" transform="translate(14.404 -152.501)"/>
  <path id="Trazado_18" data-name="Trazado 18" d="M119.205,30.49l1.4-1.4c.017-.017.035-.034.053-.05l.1-.085a1,1,0,1,1,1.3,1.51l-.07.06L120.615,31.9a1.23,1.23,0,0,0,0,1.738l2.845,2.845a1.23,1.23,0,0,0,1.739,0l.7-.7-2.1-2.111a1,1,0,0,1,1.413-1.407l2.044,2.054,16.462-19.113-1.826-1.826-13.036,11.23a1,1,0,0,1-1.3-1.511l12.924-11.134L130.235,1.726a1,1,0,0,1,.6-1.7,16.3,16.3,0,0,1,5.177.552A23.317,23.317,0,0,1,146.144,6.23l.4-.4a1,1,0,0,1,1.41,0l3.225,3.225a1,1,0,0,1,0,1.41l-.4.4a23.314,23.314,0,0,1,5.649,10.127,16.331,16.331,0,0,1,.552,5.177,1,1,0,0,1-1.7.6L145.131,16.622,128.063,36.438c-.016.019-.033.037-.051.055l-1.4,1.4a3.228,3.228,0,0,1-4.558,0l-2.845-2.845a3.227,3.227,0,0,1,0-4.559ZM135.621,2.538a17.849,17.849,0,0,0-2.173-.42l8.4,8.4,2.881-2.881a21.332,21.332,0,0,0-9.112-5.1Zm11.632,5.4-.389.389,0,0-3.6,3.6,1.815,1.815,3.6-3.6.391-.391Zm2.115,4.335-2.881,2.881,8.4,8.4a20.565,20.565,0,0,0-5.521-11.284Zm0,0" transform="translate(-118.263 0.001)"/>
  <path id="Trazado_19" data-name="Trazado 19" d="M34.119,86.049a1,1,0,0,1-1.794-.573l-.2-7.845a1,1,0,0,1,1.29-.978l4.943,1.519a1,1,0,0,1,.5,1.551Zm.035-7.082.091,3.59,2.171-2.9Zm0,0" transform="translate(8.274 -68.97)"/>
  <path id="Trazado_20" data-name="Trazado 20" d="M192.148,217.405a1,1,0,0,1,1.545-.468l5.57,4.228a1,1,0,0,1-.6,1.791h-7.033a1,1,0,0,1-.942-1.323Zm3.55,3.557-2.115-1.605-.555,1.605Zm0,0" transform="translate(-168.127 -195.124)"/>
  <path id="Trazado_21" data-name="Trazado 21" d="M26.211,396.9a1,1,0,1,1,.4,1.228,1.007,1.007,0,0,1-.4-1.228Zm0,0" transform="translate(19.805 -356.77)"/>
  <path id="Trazado_22" data-name="Trazado 22" d="M433.768,260.546a1,1,0,1,1-.4-1.228,1.007,1.007,0,0,1,.4,1.228Zm0,0" transform="translate(-426.364 -233.329)"/>
  <path id="Trazado_23" data-name="Trazado 23" d="M224.138,302.721a1,1,0,0,1-.587,1.282l-5.1,1.9a1,1,0,1,1-.695-1.869l5.1-1.9A1,1,0,0,1,224.138,302.721Zm0,0" transform="translate(-195.309 -271.952)"/>
  <path id="Trazado_24" data-name="Trazado 24" d="M125,61.017a1,1,0,0,1-1.184-.765l-.9-4.207a1,1,0,0,1,1.95-.419l.9,4.207A1,1,0,0,1,125,61.017Zm0,0" transform="translate(-87.505 -49.371)"/>
</svg>
