<svg xmlns="http://www.w3.org/2000/svg" width="45.504" height="64.658" viewBox="0 0 45.504 64.658">
  <g id="Grupo_2" data-name="Grupo 2" transform="translate(-164.654 -160.295)">
    <path id="Trazado_1" data-name="Trazado 1" d="M223.783,297.542a7.727,7.727,0,0,0,1.587-4.446,1.407,1.407,0,0,0-2.664-.643,2.53,2.53,0,0,1-.7.787,1.441,1.441,0,0,1-1.637.009,6.612,6.612,0,0,1-.81-.814c-1.211-1.334-3.237-3.568-6.875-3.568a4.1,4.1,0,0,0-2.82.992,4.1,4.1,0,0,0-2.819-.992c-3.638,0-5.664,2.233-6.875,3.568a6.8,6.8,0,0,1-.8.811,1.445,1.445,0,0,1-1.644-.006,2.54,2.54,0,0,1-.694-.774,1.41,1.41,0,0,0-2.671.63,7.724,7.724,0,0,0,1.587,4.445,11.75,11.75,0,0,0-1.545,9.033,1.41,1.41,0,0,0,1.709,1.026c.035-.009.07-.019.1-.03l1.354-.452a8.687,8.687,0,0,0,1.256,6.945,1.41,1.41,0,0,0,2.17.215l1.443-1.443a8.041,8.041,0,0,0,.678,2.384c1.07,2.306,3.191,4,6.3,5.04a1.411,1.411,0,0,0,.892,0c3.113-1.038,5.234-2.733,6.3-5.04a8.033,8.033,0,0,0,.678-2.384l1.443,1.443a1.41,1.41,0,0,0,2.169-.215,8.685,8.685,0,0,0,1.256-6.945l1.354.452a1.41,1.41,0,0,0,1.783-.891c.011-.034.021-.069.03-.1A11.75,11.75,0,0,0,223.783,297.542ZM209.862,302a14.986,14.986,0,0,1-6.3-1.643,10.592,10.592,0,0,0,4.9-1.762,7.028,7.028,0,0,0,1.394-1.319,7.03,7.03,0,0,0,1.394,1.32,10.592,10.592,0,0,0,4.9,1.762A14.981,14.981,0,0,1,209.862,302Z" transform="translate(-21.817 -95.377)" fill="#fff"/>
    <path id="Trazado_2" data-name="Trazado 2" d="M218.138,253.21h-14c-.022,0-.043,0-.064,0h-6.721c-.021,0-.042,0-.064,0h-14a1.7,1.7,0,0,0-1.7,1.874,8.7,8.7,0,0,0,17.315.573h3.612a8.7,8.7,0,0,0,17.315-.558A1.707,1.707,0,0,0,218.138,253.21Zm-19.2,2.249c.018-.119.035-.239.048-.359a1.694,1.694,0,0,0-.146-.895h3.742a1.68,1.68,0,0,0-.145.879c.013.126.03.25.048.375Z" transform="translate(-12.558 -68.926)" fill="#fff"/>
    <path id="Trazado_3" data-name="Trazado 3" d="M208.289,177.277H203.8l1.7-13.046a3.521,3.521,0,0,0-3.456-3.936H172.768a3.52,3.52,0,0,0-3.456,3.936l1.7,13.046h-4.491a1.872,1.872,0,0,0-1.869,1.87v2.072a1.872,1.872,0,0,0,1.869,1.869h41.765a1.872,1.872,0,0,0,1.87-1.869v-2.072A1.872,1.872,0,0,0,208.289,177.277Z" transform="translate(0)" fill="#fff"/>
    <g id="Grupo_1" data-name="Grupo 1" transform="translate(178.866 167.018)">
      <path id="Trazado_4" data-name="Trazado 4" d="M226.374,190.867h1.911v3.666a6.236,6.236,0,0,1-3.654,1.149,4.681,4.681,0,1,1,.039-9.347,4.818,4.818,0,0,1,3.783,1.562l-1.343,1.239a3.059,3.059,0,0,0-2.337-1.02,2.892,2.892,0,1,0-.026,5.784,3.32,3.32,0,0,0,1.627-.387Z" transform="translate(-219.7 -186.336)" fill="#224870"/>
      <path id="Trazado_5" data-name="Trazado 5" d="M268.286,190.215c0,2.014-1.51,3.266-3.924,3.266h-1.82v2.492H260.45v-9.037h3.912C266.776,186.936,268.286,188.188,268.286,190.215Zm-2.117,0c0-.994-.645-1.575-1.923-1.575h-1.7v3.137h1.7C265.524,191.777,266.169,191.2,266.169,190.215Z" transform="translate(-249.929 -186.781)" fill="#224870"/>
    </g>
  </g>
</svg>
