<svg id="buy" xmlns="http://www.w3.org/2000/svg" width="54.89" height="54.889" viewBox="0 0 54.89 54.889">
  <g id="Grupo_6" data-name="Grupo 6" transform="translate(13.722 26.301)">
    <g id="Grupo_5" data-name="Grupo 5">
      <path id="Trazado_3" data-name="Trazado 3" d="M157.732,245.333v25.158a1.144,1.144,0,0,1-1.144,1.144H131.431a1.144,1.144,0,0,1-1.144-1.144V257.912H128v12.579a3.431,3.431,0,0,0,3.431,3.431h25.158a3.431,3.431,0,0,0,3.431-3.431V245.333Z" transform="translate(-128 -245.333)"/>
    </g>
  </g>
  <g id="Grupo_8" data-name="Grupo 8" transform="translate(3.431 30.875)">
    <g id="Grupo_7" data-name="Grupo 7">
      <path id="Trazado_4" data-name="Trazado 4" d="M50.3,288H40a8.015,8.015,0,0,0-8,8h2.287A5.724,5.724,0,0,1,40,290.287H50.3a2.287,2.287,0,1,1,0,4.574H40v2.287H50.3a4.574,4.574,0,0,0,0-9.148Z" transform="translate(-32 -288)"/>
    </g>
  </g>
  <g id="Grupo_10" data-name="Grupo 10" transform="translate(0 34.306)">
    <g id="Grupo_9" data-name="Grupo 9">
      <path id="Trazado_5" data-name="Trazado 5" d="M1.144,320A1.144,1.144,0,0,0,0,321.144v1.144H5.718V320Z" transform="translate(0 -320)"/>
    </g>
  </g>
  <g id="Grupo_12" data-name="Grupo 12" transform="translate(3.431 44.598)">
    <g id="Grupo_11" data-name="Grupo 11">
      <path id="Trazado_6" data-name="Trazado 6" d="M40,421.718A5.725,5.725,0,0,1,34.287,416H32a8.015,8.015,0,0,0,8,8h3.431v-2.287H40Z" transform="translate(-32 -416)"/>
    </g>
  </g>
  <g id="Grupo_14" data-name="Grupo 14" transform="translate(0 46.885)">
    <g id="Grupo_13" data-name="Grupo 13">
      <path id="Trazado_7" data-name="Trazado 7" d="M0,437.333v1.144a1.144,1.144,0,0,0,1.144,1.144H5.718v-2.287H0Z" transform="translate(0 -437.333)"/>
    </g>
  </g>
  <g id="Grupo_16" data-name="Grupo 16" transform="translate(30.875 2.287)">
    <g id="Grupo_15" data-name="Grupo 15">
      <path id="Trazado_8" data-name="Trazado 8" d="M300.579,21.333h-8a4.574,4.574,0,0,0,0,9.148h10.292V28.194H292.574a2.287,2.287,0,0,1,0-4.574h8a5.724,5.724,0,0,1,5.718,5.718h2.287A8.015,8.015,0,0,0,300.579,21.333Z" transform="translate(-288 -21.333)"/>
    </g>
  </g>
  <g id="Grupo_18" data-name="Grupo 18" transform="translate(49.172 5.718)">
    <g id="Grupo_17" data-name="Grupo 17">
      <path id="Trazado_9" data-name="Trazado 9" d="M463.24,53.333h-4.574V55.62h5.718V54.477A1.144,1.144,0,0,0,463.24,53.333Z" transform="translate(-458.666 -53.333)"/>
    </g>
  </g>
  <g id="Grupo_20" data-name="Grupo 20" transform="translate(35.449 16.009)">
    <g id="Grupo_19" data-name="Grupo 19">
      <path id="Trazado_10" data-name="Trazado 10" d="M344.389,149.333a5.724,5.724,0,0,1-5.718,5.718h-8v2.287h8a8.015,8.015,0,0,0,8-8Z" transform="translate(-330.667 -149.333)"/>
    </g>
  </g>
  <g id="Grupo_22" data-name="Grupo 22" transform="translate(49.172 18.296)">
    <g id="Grupo_21" data-name="Grupo 21">
      <path id="Trazado_11" data-name="Trazado 11" d="M458.667,170.666v2.287h4.574a1.144,1.144,0,0,0,1.144-1.144v-1.144h-5.718Z" transform="translate(-458.667 -170.666)"/>
    </g>
  </g>
  <g id="Grupo_24" data-name="Grupo 24" transform="translate(13.725)">
    <g id="Grupo_23" data-name="Grupo 23" transform="translate(0 0)">
      <path id="Trazado_12" data-name="Trazado 12" d="M154.947,9.977l-2.2.623a11.409,11.409,0,1,1-4.77-6.466l1.249-1.917a13.72,13.72,0,1,0,5.721,7.759Z" transform="translate(-128.023 0)"/>
    </g>
  </g>
  <g id="Grupo_26" data-name="Grupo 26" transform="translate(21.727 8.005)">
    <g id="Grupo_25" data-name="Grupo 25">
      <path id="Trazado_13" data-name="Trazado 13" d="M206.1,76.954h4.574V74.667H206.1a3.431,3.431,0,0,0,0,6.861h4.574V79.241H206.1a1.144,1.144,0,0,1,0-2.287Z" transform="translate(-202.667 -74.667)"/>
    </g>
  </g>
  <g id="Grupo_28" data-name="Grupo 28" transform="translate(21.727 12.579)">
    <g id="Grupo_27" data-name="Grupo 27">
      <path id="Trazado_14" data-name="Trazado 14" d="M210.671,117.333H206.1v2.287h4.574a1.144,1.144,0,1,1,0,2.287H206.1a1.144,1.144,0,0,1-1.144-1.144h-2.287a3.431,3.431,0,0,0,3.431,3.431h4.574a3.431,3.431,0,1,0,0-6.861Z" transform="translate(-202.666 -117.333)"/>
    </g>
  </g>
  <g id="Grupo_30" data-name="Grupo 30" transform="translate(26.301 18.297)">
    <g id="Grupo_29" data-name="Grupo 29">
      <rect id="Rectángulo_5" data-name="Rectángulo 5" width="2.287" height="3.431"/>
    </g>
  </g>
  <g id="Grupo_32" data-name="Grupo 32" transform="translate(26.301 5.718)">
    <g id="Grupo_31" data-name="Grupo 31">
      <rect id="Rectángulo_6" data-name="Rectángulo 6" width="2.287" height="3.431"/>
    </g>
  </g>
  <g id="Grupo_34" data-name="Grupo 34" transform="translate(13.722 24.014)">
    <g id="Grupo_33" data-name="Grupo 33">
      <path id="Trazado_15" data-name="Trazado 15" d="M131.431,224A3.431,3.431,0,0,0,128,227.431V232h2.287v-4.574a1.144,1.144,0,0,1,1.144-1.144H136V224Z" transform="translate(-128 -224)"/>
    </g>
  </g>
  <g id="Grupo_36" data-name="Grupo 36" transform="translate(19.44 25.158)">
    <g id="Grupo_35" data-name="Grupo 35">
      <rect id="Rectángulo_7" data-name="Rectángulo 7" width="2.287" height="6.861"/>
    </g>
  </g>
  <g id="Grupo_38" data-name="Grupo 38" transform="translate(25.158 26.301)">
    <g id="Grupo_37" data-name="Grupo 37">
      <path id="Trazado_16" data-name="Trazado 16" d="M236.954,245.333v8h-2.287v2.287H238.1a1.144,1.144,0,0,0,1.144-1.144v-9.148Z" transform="translate(-234.667 -245.333)"/>
    </g>
  </g>
  <g id="Grupo_40" data-name="Grupo 40" transform="translate(34.306 48.028)">
    <g id="Grupo_39" data-name="Grupo 39">
      <rect id="Rectángulo_8" data-name="Rectángulo 8" width="6.861" height="2.287"/>
    </g>
  </g>
  <g id="Grupo_42" data-name="Grupo 42" transform="translate(34.306 43.454)">
    <g id="Grupo_41" data-name="Grupo 41">
      <rect id="Rectángulo_9" data-name="Rectángulo 9" width="6.861" height="2.287"/>
    </g>
  </g>
</svg>
